<svg xmlns="http://www.w3.org/2000/svg" xmlns:xlink="http://www.w3.org/1999/xlink" viewBox="0 0 100 100" width="200px" height="200px"><g><path fill="#c7ede6" d="M88.69,56.131c0.3-0.616,0.566-1.264,0.796-1.943c2.633-7.77-1.349-17.078-9.733-19.325c-0.906-11.384-8.906-19.193-17.941-20.526c-10.341-1.525-19.814,5.044-22.966,15.485c-3.799-1.346-7.501-1.182-10.99,0.857c-1.583,0.732-3.031,1.812-4.33,3.233c-1.907,2.086-3.147,4.719-3.652,7.495c-0.748,0.118-1.483,0.236-2.176,0.484c-4.04,1.449-6.589,4.431-7.288,8.923c-0.435,2.797,0.443,5.587,0.933,6.714c1.935,4.455,6.422,6.98,10.981,6.312c0.227-0.033,0.557,0.069,0.752,0.233c0.241,7.12,3.698,13.417,8.884,17.014c8.321,5.772,19.027,3.994,25.781-3.921c2.894,2.96,6.338,4.398,10.384,3.876c4.023-0.519,7.147-2.739,9.426-6.349c1.053,0.283,2.051,0.691,3.083,0.804c4.042,0.442,7.324-1.165,9.732-4.8c0.922-1.391,1.794-3.194,1.794-6.354C92.16,61.088,90.867,58.121,88.69,56.131z"/><path fill="#fdfcef" d="M72.954,71.302c0,0,11.691,0,11.762,0c2.7,0,4.888-2.189,4.888-4.889c0-2.355-1.666-4.321-3.884-4.784c0.026-0.206,0.043-0.415,0.043-0.628c0-2.796-2.267-5.063-5.063-5.063c-1.651,0-3.113,0.794-4.037,2.017c-0.236-3.113-3.017-5.514-6.27-5.116c-2.379,0.291-4.346,2.13-4.784,4.486c-0.14,0.756-0.126,1.489,0.014,2.177c-0.638-0.687-1.546-1.119-2.557-1.119c-1.85,0-3.361,1.441-3.48,3.261c-0.84-0.186-1.754-0.174-2.717,0.188c-1.84,0.691-3.15,2.423-3.227,4.387c-0.109,2.789,2.12,5.085,4.885,5.085c0.21,0,0.948,0,1.118,0h10.151"/><path fill="#472b29" d="M84.716,71.802H72.954c-0.276,0-0.5-0.224-0.5-0.5s0.224-0.5,0.5-0.5h11.762c2.42,0,4.389-1.969,4.389-4.389c0-2.066-1.466-3.873-3.486-4.295c-0.255-0.053-0.426-0.292-0.394-0.55c0.023-0.187,0.039-0.375,0.039-0.567c0-2.516-2.047-4.563-4.563-4.563c-1.438,0-2.765,0.663-3.638,1.818c-0.125,0.166-0.339,0.24-0.54,0.178c-0.199-0.059-0.342-0.234-0.357-0.441c-0.104-1.377-0.779-2.671-1.851-3.549c-1.082-0.887-2.453-1.281-3.86-1.109c-2.166,0.265-3.956,1.943-4.353,4.081c-0.124,0.667-0.12,1.335,0.013,1.986c0.044,0.22-0.062,0.442-0.262,0.544c-0.199,0.103-0.442,0.061-0.595-0.105c-0.574-0.618-1.352-0.959-2.19-0.959c-1.569,0-2.878,1.227-2.981,2.793c-0.01,0.146-0.082,0.28-0.199,0.367s-0.269,0.118-0.408,0.088c-0.841-0.186-1.637-0.131-2.433,0.167c-1.669,0.626-2.835,2.209-2.903,3.938c-0.047,1.207,0.387,2.35,1.222,3.218c0.835,0.868,1.958,1.347,3.163,1.347h11.269c0.276,0,0.5,0.224,0.5,0.5s-0.224,0.5-0.5,0.5H58.528c-1.479,0-2.858-0.587-3.884-1.654c-1.025-1.066-1.558-2.469-1.5-3.95c0.083-2.126,1.51-4.069,3.55-4.836c0.8-0.3,1.627-0.401,2.468-0.298c0.377-1.823,1.998-3.182,3.905-3.182c0.685,0,1.354,0.179,1.944,0.509c0-0.385,0.035-0.772,0.106-1.159c0.477-2.562,2.621-4.573,5.215-4.891c1.678-0.208,3.319,0.266,4.615,1.328c1.004,0.823,1.716,1.951,2.038,3.193c1.012-0.916,2.319-1.425,3.714-1.425c3.067,0,5.563,2.496,5.563,5.563c0,0.083-0.002,0.167-0.007,0.249c2.254,0.673,3.848,2.777,3.848,5.164C90.104,69.385,87.687,71.802,84.716,71.802z"/><path fill="#fdfcef" d="M70.121,60.533c-1.808-0.119-3.365,1.13-3.476,2.789c-0.014,0.206-0.005,0.409,0.025,0.606c-0.349-0.394-0.865-0.661-1.458-0.7c-1.085-0.071-2.022,0.645-2.158,1.62c-0.197-0.054-0.403-0.09-0.616-0.104c-1.582-0.104-2.944,0.989-3.042,2.441"/><path fill="#472b29" d="M59.396,67.435c-0.006,0-0.012,0-0.017,0c-0.138-0.009-0.242-0.128-0.233-0.266c0.106-1.587,1.583-2.794,3.308-2.674c0.136,0.009,0.272,0.027,0.409,0.053c0.274-0.968,1.256-1.646,2.365-1.568c0.425,0.028,0.824,0.161,1.164,0.382c0-0.019,0.002-0.037,0.003-0.055c0.12-1.794,1.792-3.156,3.743-3.022c0.138,0.009,0.242,0.128,0.233,0.266c-0.009,0.138-0.125,0.245-0.266,0.233c-1.671-0.11-3.109,1.038-3.21,2.557c-0.012,0.184-0.004,0.37,0.023,0.552c0.017,0.109-0.041,0.217-0.141,0.264c-0.101,0.047-0.22,0.022-0.293-0.061c-0.317-0.358-0.787-0.583-1.288-0.616c-0.928-0.065-1.775,0.555-1.893,1.405c-0.01,0.071-0.05,0.134-0.11,0.174c-0.06,0.04-0.135,0.051-0.203,0.033c-0.189-0.051-0.381-0.084-0.568-0.096c-1.428-0.09-2.688,0.896-2.776,2.208C59.637,67.333,59.527,67.435,59.396,67.435z"/><path fill="#fdfcef" d="M86.695,62.202c-1.699-0.801-3.664-0.234-4.389,1.267c-0.09,0.186-0.157,0.379-0.201,0.574"/><path fill="#472b29" d="M82.105,64.292c-0.018,0-0.037-0.002-0.056-0.006c-0.134-0.03-0.219-0.165-0.188-0.299c0.049-0.216,0.123-0.427,0.22-0.627c0.783-1.622,2.901-2.244,4.72-1.384c0.125,0.059,0.179,0.208,0.12,0.333c-0.059,0.126-0.21,0.177-0.333,0.12c-1.575-0.742-3.394-0.226-4.057,1.149c-0.08,0.166-0.142,0.341-0.183,0.521C82.323,64.214,82.22,64.292,82.105,64.292z"/><g><path fill="#fff" d="M18.355 48.167H8.324c-.276 0-.5-.224-.5-.5s.224-.5.5-.5h10.031c.276 0 .5.224.5.5S18.631 48.167 18.355 48.167zM21.236 48.167H19.79c-.276 0-.5-.224-.5-.5s.224-.5.5-.5h1.446c.276 0 .5.224.5.5S21.512 48.167 21.236 48.167zM25.29 48.167h-2.546c-.276 0-.5-.224-.5-.5s.224-.5.5-.5h2.546c.276 0 .5.224.5.5S25.567 48.167 25.29 48.167zM25.29 50.032h-9.616c-.276 0-.5-.224-.5-.5s.224-.5.5-.5h9.616c.276 0 .5.224.5.5S25.567 50.032 25.29 50.032zM13.942 50.032h-.58c-.276 0-.5-.224-.5-.5s.224-.5.5-.5h.58c.276 0 .5.224.5.5S14.219 50.032 13.942 50.032zM11.566 50.032h-1.457c-.276 0-.5-.224-.5-.5s.224-.5.5-.5h1.457c.276 0 .5.224.5.5S11.842 50.032 11.566 50.032zM20.702 46.302h-5.027c-.276 0-.5-.224-.5-.5s.224-.5.5-.5h5.027c.276 0 .5.224.5.5S20.978 46.302 20.702 46.302zM20.702 44.437h-1.257c-.276 0-.5-.224-.5-.5s.224-.5.5-.5h1.257c.276 0 .5.224.5.5S20.978 44.437 20.702 44.437zM17.432 51.897h-1.758c-.276 0-.5-.224-.5-.5s.224-.5.5-.5h1.758c.276 0 .5.224.5.5S17.709 51.897 17.432 51.897z"/></g><g><path fill="#fff" d="M71.533 21.891H61.502c-.276 0-.5-.224-.5-.5s.224-.5.5-.5h10.031c.276 0 .5.224.5.5S71.809 21.891 71.533 21.891zM74.413 21.891h-1.446c-.276 0-.5-.224-.5-.5s.224-.5.5-.5h1.446c.276 0 .5.224.5.5S74.69 21.891 74.413 21.891zM78.468 21.891h-2.546c-.276 0-.5-.224-.5-.5s.224-.5.5-.5h2.546c.276 0 .5.224.5.5S78.744 21.891 78.468 21.891zM76.442 18.161h-9.616c-.276 0-.5-.224-.5-.5s.224-.5.5-.5h9.616c.276 0 .5.224.5.5S76.719 18.161 76.442 18.161zM65.095 18.161h-.58c-.276 0-.5-.224-.5-.5s.224-.5.5-.5h.58c.276 0 .5.224.5.5S65.371 18.161 65.095 18.161zM62.718 18.161h-1.456c-.276 0-.5-.224-.5-.5s.224-.5.5-.5h1.456c.276 0 .5.224.5.5S62.994 18.161 62.718 18.161zM73.879 20.025h-5.027c-.276 0-.5-.224-.5-.5s.224-.5.5-.5h5.027c.276 0 .5.224.5.5S74.156 20.025 73.879 20.025z"/><path fill="#fff" d="M73.879 18.161h-1.257c-.276 0-.5-.224-.5-.5s.224-.5.5-.5h1.257c.276 0 .5.224.5.5S74.156 18.161 73.879 18.161zM67.397 20.025h-1.759c-.276 0-.5-.224-.5-.5s.224-.5.5-.5h1.759c.276 0 .5.224.5.5S67.673 20.025 67.397 20.025z"/></g><g><path fill="#cdcbbd" d="M61.728,68.991l-17.852,7.19c-3.08,1.24-6.614-0.265-7.855-3.344L25.663,47.12c-1.24-3.08,0.265-6.614,3.344-7.855l17.852-7.19c3.08-1.24,6.614,0.265,7.855,3.344l10.357,25.716C66.312,64.216,64.807,67.751,61.728,68.991z"/><path fill="#472b29" d="M41.629,77.318c-2.669,0-5.201-1.597-6.258-4.22L25.014,47.382c-1.388-3.446,0.287-7.378,3.732-8.766l17.853-7.19c1.662-0.669,3.492-0.65,5.153,0.057c1.66,0.707,2.943,2.012,3.613,3.675l10.357,25.716c1.388,3.446-0.287,7.378-3.732,8.766l0,0l-17.853,7.19C43.315,77.162,42.465,77.318,41.629,77.318z M49.102,32.339c-0.671,0-1.342,0.129-1.98,0.386l-17.853,7.19c-2.729,1.099-4.056,4.214-2.957,6.944L36.67,72.575c1.099,2.729,4.214,4.054,6.944,2.957l17.853-7.19c2.729-1.1,4.056-4.215,2.957-6.944L54.065,35.682c-0.53-1.316-1.546-2.35-2.862-2.91C50.526,32.483,49.813,32.339,49.102,32.339z M61.728,68.991h0.01H61.728z"/><defs><path id="HUeC4FLkmKyGyxQWrt7xfa" d="M56.419,47.885l4.96,12.315c0.984,2.443-0.21,5.246-2.652,6.23l-14.464,5.825c-2.443,0.984-5.246-0.21-6.23-2.652l-8.677-21.544c-0.984-2.443,0.21-5.246,2.652-6.23l14.464-5.825c2.443-0.984,5.246,0.21,6.23,2.652l1.222,3.035"/></defs><clipPath id="HUeC4FLkmKyGyxQWrt7xfb"><use overflow="visible" xlink:href="#HUeC4FLkmKyGyxQWrt7xfa"/></clipPath><g clip-path="url(#HUeC4FLkmKyGyxQWrt7xfb)"><path fill="#ee3e54" d="M26.127 38.992H33.311V46.175999999999995H26.127z" transform="rotate(23.059 29.72 42.59)"/><path fill="#472b29" d="M31.617,47.646c-0.046,0-0.092-0.009-0.137-0.028l-6.61-2.815c-0.178-0.076-0.261-0.281-0.185-0.459l2.815-6.61c0.076-0.177,0.282-0.26,0.459-0.185l6.61,2.815c0.178,0.076,0.261,0.281,0.185,0.459l-2.815,6.61C31.882,47.566,31.752,47.646,31.617,47.646z M25.466,44.296l5.966,2.541l2.541-5.966l-5.966-2.541L25.466,44.296z"/><path fill="#ee3e54" d="M35.551 35.196H42.735V42.379999999999995H35.551z" transform="rotate(23.059 39.146 38.793)"/><path fill="#472b29" d="M41.041,43.85c-0.046,0-0.092-0.009-0.137-0.028l-6.61-2.814c-0.085-0.037-0.153-0.105-0.188-0.191c-0.035-0.086-0.034-0.183,0.002-0.268l2.815-6.61c0.076-0.178,0.282-0.259,0.459-0.185l6.61,2.814c0.085,0.037,0.153,0.105,0.188,0.191c0.035,0.086,0.034,0.183-0.002,0.268l-2.815,6.61C41.306,43.77,41.177,43.85,41.041,43.85z M34.89,40.501l5.966,2.54l2.541-5.966l-5.966-2.54L34.89,40.501z"/><path fill="#ee3e54" d="M44.975 31.4H52.159V38.583999999999996H44.975z" transform="rotate(23.059 48.57 34.998)"/><path fill="#472b29" d="M50.465,40.055c-0.047,0-0.093-0.009-0.137-0.028l-6.61-2.815c-0.178-0.076-0.261-0.281-0.185-0.459l2.814-6.61c0.037-0.085,0.105-0.153,0.191-0.188c0.087-0.035,0.183-0.033,0.268,0.002l6.61,2.815c0.178,0.076,0.261,0.281,0.185,0.459l-2.814,6.61c-0.037,0.085-0.105,0.153-0.191,0.188C50.554,40.046,50.51,40.055,50.465,40.055z M44.314,36.705l5.966,2.541l2.54-5.966l-5.966-2.541L44.314,36.705z"/><path fill="#ee3e54" d="M54.399 27.605H61.583V34.789H54.399z" transform="rotate(23.059 57.996 31.202)"/><path fill="#472b29" d="M59.889,36.259c-0.046,0-0.092-0.009-0.137-0.028l-6.61-2.814c-0.085-0.037-0.153-0.105-0.188-0.191c-0.035-0.086-0.034-0.183,0.002-0.268l2.815-6.61c0.076-0.178,0.282-0.26,0.459-0.185l6.61,2.814c0.085,0.037,0.153,0.105,0.188,0.191c0.035,0.086,0.034,0.183-0.002,0.268l-2.815,6.61C60.154,36.179,60.025,36.259,59.889,36.259z M53.738,32.91l5.966,2.54l2.541-5.966l-5.966-2.54L53.738,32.91z"/><path fill="#cbc9bc" d="M23.313 45.602H30.497V52.785999999999994H23.313z" transform="rotate(23.059 26.906 49.2)"/><path fill="#472b29" d="M28.803,54.256c-0.047,0-0.093-0.009-0.137-0.028l-6.61-2.815c-0.178-0.076-0.261-0.281-0.185-0.459l2.814-6.61c0.037-0.085,0.105-0.153,0.191-0.188c0.087-0.035,0.183-0.033,0.268,0.002l6.61,2.815c0.178,0.076,0.261,0.281,0.185,0.459l-2.814,6.61c-0.037,0.085-0.105,0.153-0.191,0.188C28.891,54.247,28.847,54.256,28.803,54.256z M22.652,50.906l5.966,2.541l2.54-5.966l-5.966-2.541L22.652,50.906z"/><path fill="#cbc9bc" d="M32.737 41.806H39.921V48.989999999999995H32.737z" transform="rotate(23.059 36.33 45.404)"/><path fill="#472b29" d="M38.226,50.46c-0.046,0-0.092-0.009-0.137-0.028l-6.61-2.814c-0.085-0.037-0.153-0.105-0.188-0.191c-0.035-0.086-0.034-0.183,0.002-0.268l2.815-6.61c0.076-0.178,0.281-0.261,0.459-0.185l6.61,2.814c0.085,0.037,0.153,0.105,0.188,0.191c0.035,0.086,0.034,0.183-0.002,0.268l-2.815,6.61C38.492,50.38,38.362,50.46,38.226,50.46z M32.076,47.111l5.966,2.54l2.541-5.966l-5.966-2.54L32.076,47.111z"/><path fill="#cbc9bc" d="M42.161 38.01H49.345V45.193999999999996H42.161z" transform="rotate(23.059 45.756 41.608)"/><path fill="#472b29" d="M47.651,46.664c-0.046,0-0.092-0.009-0.137-0.028l-6.61-2.815c-0.178-0.076-0.261-0.281-0.185-0.459l2.815-6.61c0.076-0.177,0.28-0.26,0.459-0.185l6.61,2.815c0.178,0.076,0.261,0.281,0.185,0.459l-2.815,6.61C47.916,46.584,47.786,46.664,47.651,46.664z M41.5,43.315l5.966,2.541l2.541-5.966l-5.966-2.541L41.5,43.315z"/><path fill="#cbc9bc" d="M51.585 34.215H58.769V41.399H51.585z" transform="rotate(23.059 55.181 37.813)"/><path fill="#472b29" d="M57.075,42.869c-0.047,0-0.093-0.009-0.137-0.028l-6.61-2.815c-0.178-0.076-0.261-0.281-0.185-0.459l2.814-6.61c0.076-0.178,0.281-0.26,0.459-0.185l6.61,2.814c0.178,0.076,0.261,0.282,0.185,0.459l-2.814,6.61c-0.037,0.085-0.105,0.153-0.191,0.188C57.164,42.861,57.119,42.869,57.075,42.869z M50.924,39.519l5.966,2.541l2.54-5.966l-5.966-2.54L50.924,39.519z"/><path fill="#ee3e54" d="M29.924 48.416H37.108V55.599999999999994H29.924z" transform="rotate(23.059 33.517 52.015)"/><path fill="#472b29" d="M35.414,57.071c-0.047,0-0.093-0.009-0.137-0.028l-6.61-2.814c-0.085-0.037-0.153-0.105-0.188-0.191c-0.035-0.086-0.034-0.183,0.002-0.268l2.815-6.61c0.076-0.178,0.282-0.261,0.459-0.185l6.61,2.815c0.178,0.076,0.261,0.281,0.185,0.459l-2.814,6.61c-0.037,0.085-0.105,0.153-0.191,0.188C35.503,57.062,35.458,57.071,35.414,57.071z M29.263,53.721l5.966,2.541l2.54-5.966l-5.966-2.541L29.263,53.721z"/><path fill="#ee3e54" d="M39.348 44.621H46.532V51.805H39.348z" transform="rotate(23.059 42.943 48.22)"/><path fill="#472b29" d="M44.838,53.275c-0.046,0-0.092-0.009-0.137-0.028l-6.61-2.814c-0.085-0.037-0.153-0.105-0.188-0.191c-0.035-0.086-0.034-0.183,0.002-0.268l2.815-6.61c0.076-0.178,0.282-0.26,0.459-0.185l6.61,2.814c0.085,0.037,0.153,0.105,0.188,0.191c0.035,0.086,0.034,0.183-0.002,0.268l-2.815,6.61C45.103,53.195,44.973,53.275,44.838,53.275z M38.687,49.926l5.966,2.54l2.541-5.966l-5.966-2.54L38.687,49.926z"/><path fill="#ee3e54" d="M48.772 40.825H55.955999999999996V48.009H48.772z" transform="rotate(23.059 52.368 44.424)"/><path fill="#472b29" d="M54.262,49.479c-0.047,0-0.093-0.009-0.137-0.028l-6.61-2.815c-0.178-0.076-0.261-0.281-0.185-0.459l2.814-6.61c0.037-0.085,0.105-0.153,0.191-0.188c0.087-0.035,0.183-0.033,0.268,0.002l6.61,2.815c0.178,0.076,0.261,0.281,0.185,0.459l-2.814,6.61c-0.037,0.085-0.105,0.153-0.191,0.188C54.351,49.471,54.307,49.479,54.262,49.479z M48.111,46.13l5.966,2.541l2.54-5.966l-5.966-2.541L48.111,46.13z"/><path fill="#ee3e54" d="M58.196 37.029H65.38V44.213H58.196z" transform="rotate(23.059 61.793 40.628)"/><path fill="#472b29" d="M63.686,45.684c-0.046,0-0.092-0.009-0.137-0.028l-6.61-2.814c-0.085-0.037-0.153-0.105-0.188-0.191c-0.035-0.086-0.034-0.183,0.002-0.268l2.815-6.61c0.076-0.178,0.282-0.261,0.459-0.185l6.61,2.814c0.178,0.076,0.261,0.282,0.185,0.459l-2.814,6.61C63.952,45.603,63.822,45.684,63.686,45.684z M57.535,42.334l5.966,2.54l2.54-5.966l-5.966-2.54L57.535,42.334z"/><path fill="#cbc9bc" d="M27.11 55.026H34.294V62.21H27.11z" transform="rotate(23.059 30.703 58.625)"/><path fill="#472b29" d="M32.599,63.681c-0.046,0-0.092-0.009-0.137-0.028l-6.61-2.815c-0.178-0.076-0.261-0.281-0.185-0.459l2.814-6.61c0.037-0.085,0.105-0.153,0.191-0.188c0.087-0.035,0.183-0.034,0.268,0.002l6.61,2.814c0.085,0.037,0.153,0.105,0.188,0.191c0.035,0.086,0.034,0.183-0.002,0.268l-2.815,6.61C32.865,63.601,32.735,63.681,32.599,63.681z M26.449,60.331l5.966,2.541l2.541-5.966l-5.966-2.541L26.449,60.331z"/><path fill="#cbc9bc" d="M36.534 51.231H43.717999999999996V58.415H36.534z" transform="rotate(23.059 40.128 54.83)"/><path fill="#472b29" d="M42.024,59.885c-0.046,0-0.092-0.009-0.137-0.028l-6.61-2.814c-0.178-0.076-0.261-0.282-0.185-0.459l2.814-6.61c0.076-0.178,0.281-0.26,0.459-0.185l6.61,2.814c0.178,0.076,0.261,0.282,0.185,0.459l-2.814,6.61C42.289,59.805,42.16,59.885,42.024,59.885z M35.873,56.536l5.966,2.54l2.54-5.966l-5.966-2.54L35.873,56.536z"/><path fill="#cbc9bc" d="M45.958 47.435H53.141999999999996V54.619H45.958z" transform="rotate(23.059 49.553 51.034)"/><path fill="#472b29" d="M51.448,56.089c-0.046,0-0.092-0.009-0.137-0.028l-6.61-2.815c-0.178-0.076-0.261-0.281-0.185-0.459l2.815-6.61c0.076-0.178,0.281-0.261,0.459-0.185l6.61,2.815c0.178,0.076,0.261,0.281,0.185,0.459l-2.815,6.61C51.713,56.009,51.583,56.089,51.448,56.089z M45.297,52.74l5.966,2.541l2.541-5.966l-5.966-2.541L45.297,52.74z"/><path fill="#cbc9bc" d="M55.382 43.639H62.565999999999995V50.823H55.382z" transform="rotate(23.059 58.978 47.238)"/><path fill="#472b29" d="M60.872,52.293c-0.046,0-0.092-0.009-0.137-0.028l-6.61-2.814c-0.178-0.076-0.261-0.282-0.185-0.459l2.814-6.61c0.077-0.178,0.281-0.26,0.459-0.185l6.61,2.814c0.085,0.037,0.153,0.105,0.187,0.191c0.035,0.086,0.034,0.183-0.002,0.268l-2.815,6.61C61.137,52.213,61.008,52.293,60.872,52.293z M54.721,48.944l5.966,2.54l2.541-5.966l-5.966-2.54L54.721,48.944z"/><g><path fill="#ee3e54" d="M33.725 57.838H40.909V65.022H33.725z" transform="rotate(23.059 37.319 61.438)"/><path fill="#472b29" d="M39.215,66.492c-0.046,0-0.092-0.009-0.137-0.028l-6.61-2.814c-0.085-0.037-0.153-0.105-0.188-0.191c-0.035-0.086-0.034-0.183,0.002-0.268l2.815-6.61c0.075-0.178,0.281-0.26,0.459-0.185l6.61,2.814c0.085,0.037,0.153,0.105,0.188,0.191c0.035,0.086,0.034,0.183-0.002,0.268l-2.815,6.61C39.48,66.412,39.351,66.492,39.215,66.492z M33.064,63.143l5.966,2.54l2.541-5.966l-5.966-2.54L33.064,63.143z"/></g><g><path fill="#ee3e54" d="M43.15 54.043H50.333999999999996V61.227H43.15z" transform="rotate(23.059 46.744 57.642)"/><path fill="#472b29" d="M48.64,62.697c-0.047,0-0.093-0.009-0.137-0.028l-6.61-2.815c-0.178-0.076-0.261-0.281-0.185-0.459l2.814-6.61c0.037-0.085,0.105-0.153,0.191-0.188c0.087-0.034,0.183-0.033,0.268,0.002l6.61,2.815c0.178,0.076,0.261,0.281,0.185,0.459l-2.814,6.61c-0.037,0.085-0.105,0.153-0.191,0.188C48.728,62.688,48.684,62.697,48.64,62.697z M42.489,59.347l5.966,2.541l2.54-5.966l-5.966-2.541L42.489,59.347z"/></g><g><path fill="#ee3e54" d="M52.574 50.247H59.757999999999996V57.431H52.574z" transform="rotate(23.059 56.17 53.846)"/><path fill="#472b29" d="M58.063,58.901c-0.047,0-0.093-0.009-0.137-0.028l-6.61-2.815c-0.178-0.076-0.261-0.281-0.185-0.459l2.815-6.61c0.076-0.178,0.281-0.261,0.459-0.185l6.61,2.814c0.085,0.037,0.153,0.105,0.188,0.191c0.035,0.086,0.034,0.183-0.002,0.268l-2.814,6.61c-0.037,0.085-0.105,0.153-0.191,0.188C58.152,58.893,58.108,58.901,58.063,58.901z M51.912,55.552l5.966,2.541l2.541-5.966l-5.966-2.54L51.912,55.552z"/></g><g><path fill="#ee3e54" d="M61.998 46.451H69.182V53.635H61.998z" transform="rotate(23.059 65.595 50.05)"/><path fill="#472b29" d="M67.488,55.105c-0.046,0-0.092-0.009-0.137-0.028l-6.61-2.815c-0.178-0.076-0.261-0.281-0.185-0.459l2.815-6.61c0.076-0.178,0.281-0.26,0.459-0.185l6.61,2.815c0.178,0.076,0.261,0.281,0.185,0.459l-2.815,6.61C67.753,55.025,67.623,55.105,67.488,55.105z M61.337,51.756l5.966,2.541l2.541-5.966l-5.966-2.541L61.337,51.756z"/></g><g><path fill="#cbc9bc" d="M30.911 64.448H38.095V71.63199999999999H30.911z" transform="rotate(23.059 34.504 68.048)"/><path fill="#472b29" d="M36.401,73.102c-0.046,0-0.092-0.009-0.137-0.028l-6.61-2.814c-0.085-0.037-0.153-0.105-0.188-0.191c-0.035-0.086-0.034-0.183,0.002-0.268l2.815-6.61c0.076-0.178,0.28-0.26,0.459-0.185l6.61,2.814c0.085,0.037,0.153,0.105,0.188,0.191c0.035,0.086,0.034,0.183-0.002,0.268l-2.815,6.61C36.666,73.022,36.536,73.102,36.401,73.102z M30.25,69.753l5.966,2.54l2.541-5.966l-5.966-2.54L30.25,69.753z"/></g><g><path fill="#cbc9bc" d="M40.335 60.652H47.519V67.836H40.335z" transform="rotate(23.059 43.93 64.253)"/><path fill="#472b29" d="M45.825,69.307c-0.046,0-0.092-0.009-0.137-0.028l-6.61-2.815c-0.178-0.076-0.261-0.281-0.185-0.459l2.815-6.61c0.076-0.178,0.282-0.261,0.459-0.185l6.61,2.815c0.178,0.076,0.261,0.281,0.185,0.459l-2.815,6.61C46.09,69.226,45.961,69.307,45.825,69.307z M39.674,65.957l5.966,2.541l2.541-5.966l-5.966-2.541L39.674,65.957z"/></g><g><path fill="#cbc9bc" d="M49.759 56.857H56.943V64.041H49.759z" transform="rotate(23.059 53.355 60.457)"/><path fill="#472b29" d="M55.249,65.511c-0.047,0-0.093-0.009-0.137-0.028l-6.61-2.815c-0.178-0.076-0.261-0.281-0.185-0.459l2.814-6.61c0.037-0.085,0.105-0.153,0.191-0.188c0.087-0.035,0.183-0.033,0.268,0.002l6.61,2.815c0.178,0.076,0.261,0.281,0.185,0.459l-2.814,6.61c-0.037,0.085-0.105,0.153-0.191,0.188C55.338,65.503,55.294,65.511,55.249,65.511z M49.098,62.162l5.966,2.541l2.54-5.966l-5.966-2.541L49.098,62.162z"/></g><g><path fill="#cbc9bc" d="M59.184 53.061H66.368V60.245H59.184z" transform="rotate(23.059 62.78 56.661)"/><path fill="#472b29" d="M64.673,61.715c-0.046,0-0.092-0.009-0.137-0.028l-6.61-2.814c-0.085-0.037-0.153-0.105-0.188-0.191c-0.035-0.086-0.034-0.183,0.002-0.268l2.814-6.61c0.037-0.085,0.105-0.153,0.191-0.188c0.087-0.035,0.183-0.033,0.268,0.002l6.61,2.815c0.178,0.076,0.261,0.281,0.185,0.459l-2.815,6.61C64.938,61.635,64.809,61.715,64.673,61.715z M58.522,58.366l5.966,2.54l2.541-5.966L61.063,52.4L58.522,58.366z"/></g><g><path fill="#ee3e54" d="M37.522 67.263H44.705999999999996V74.447H37.522z" transform="rotate(23.059 41.116 70.864)"/><path fill="#472b29" d="M43.012,75.917c-0.046,0-0.092-0.009-0.137-0.028l-6.61-2.814c-0.085-0.037-0.153-0.105-0.188-0.191c-0.035-0.086-0.034-0.183,0.002-0.268l2.815-6.61c0.076-0.178,0.281-0.261,0.459-0.185l6.61,2.814c0.085,0.037,0.153,0.105,0.188,0.191c0.035,0.086,0.034,0.183-0.002,0.268l-2.815,6.61C43.277,75.837,43.148,75.917,43.012,75.917z M36.861,72.568l5.966,2.54l2.541-5.966l-5.966-2.54L36.861,72.568z"/></g><g><path fill="#ee3e54" d="M46.946 63.467H54.129999999999995V70.651H46.946z" transform="rotate(23.059 50.541 67.068)"/><path fill="#472b29" d="M52.436,72.122c-0.047,0-0.093-0.009-0.137-0.028l-6.61-2.815c-0.178-0.076-0.261-0.281-0.185-0.459l2.814-6.61c0.037-0.085,0.105-0.153,0.191-0.188c0.087-0.035,0.183-0.033,0.268,0.002l6.61,2.815c0.178,0.076,0.261,0.281,0.185,0.459l-2.814,6.61c-0.037,0.085-0.105,0.153-0.191,0.188C52.525,72.113,52.481,72.122,52.436,72.122z M46.286,68.772l5.966,2.541l2.54-5.966l-5.966-2.541L46.286,68.772z"/></g><g><path fill="#ee3e54" d="M56.371 59.672H63.555V66.856H56.371z" transform="rotate(23.059 59.966 63.272)"/><path fill="#472b29" d="M61.861,68.326c-0.046,0-0.092-0.009-0.137-0.028l-6.61-2.814c-0.085-0.037-0.153-0.105-0.188-0.191c-0.035-0.086-0.034-0.183,0.002-0.268l2.815-6.61c0.076-0.178,0.281-0.26,0.459-0.185l6.61,2.814c0.178,0.076,0.261,0.282,0.185,0.459l-2.814,6.61C62.126,68.246,61.996,68.326,61.861,68.326z M55.709,64.976l5.966,2.54l2.54-5.966l-5.966-2.54L55.709,64.976z"/></g><g><path fill="#ee3e54" d="M65.795 55.876H72.979V63.059999999999995H65.795z" transform="rotate(23.059 69.392 59.477)"/><path fill="#472b29" d="M71.285,64.53c-0.046,0-0.092-0.009-0.137-0.028l-6.61-2.815c-0.178-0.076-0.261-0.281-0.185-0.459l2.815-6.61c0.076-0.178,0.281-0.261,0.459-0.185l6.61,2.815c0.178,0.076,0.261,0.281,0.185,0.459l-2.815,6.61C71.55,64.45,71.42,64.53,71.285,64.53z M65.134,61.181l5.966,2.541l2.541-5.966l-5.966-2.541L65.134,61.181z"/></g><g><path fill="#cbc9bc" d="M34.708 73.873H41.891999999999996V81.057H34.708z" transform="rotate(23.059 38.301 77.474)"/><path fill="#472b29" d="M40.198,82.527c-0.046,0-0.092-0.009-0.137-0.028l-6.61-2.814c-0.178-0.076-0.261-0.282-0.185-0.459l2.814-6.61c0.076-0.178,0.281-0.26,0.459-0.185l6.61,2.814c0.178,0.076,0.261,0.282,0.185,0.459l-2.814,6.61C40.463,82.447,40.334,82.527,40.198,82.527z M34.047,79.178l5.966,2.54l2.54-5.966l-5.966-2.54L34.047,79.178z"/></g><g><path fill="#cbc9bc" d="M44.132 70.077H51.315999999999995V77.261H44.132z" transform="rotate(23.059 47.726 73.678)"/><path fill="#472b29" d="M49.622,78.731c-0.046,0-0.092-0.009-0.137-0.028l-6.61-2.815c-0.178-0.076-0.261-0.281-0.185-0.459l2.815-6.61c0.076-0.178,0.282-0.26,0.459-0.185l6.61,2.815c0.178,0.076,0.261,0.281,0.185,0.459l-2.815,6.61C49.887,78.651,49.758,78.731,49.622,78.731z M43.471,75.382l5.966,2.541l2.541-5.966l-5.966-2.541L43.471,75.382z"/></g><g><path fill="#cbc9bc" d="M53.556 66.281H60.739999999999995V73.465H53.556z" transform="rotate(23.059 57.152 69.883)"/><path fill="#472b29" d="M59.046,74.935c-0.046,0-0.092-0.009-0.137-0.028l-6.61-2.814c-0.178-0.076-0.261-0.282-0.185-0.459l2.814-6.61c0.077-0.178,0.281-0.261,0.459-0.185l6.61,2.814c0.085,0.037,0.153,0.105,0.188,0.191c0.035,0.086,0.034,0.183-0.002,0.268l-2.815,6.61C59.311,74.855,59.182,74.935,59.046,74.935z M52.895,71.586l5.966,2.54l2.541-5.966l-5.966-2.54L52.895,71.586z"/></g><g><path fill="#cbc9bc" d="M62.981 62.486H70.165V69.67H62.981z" transform="rotate(23.059 66.577 66.087)"/><path fill="#472b29" d="M68.471,71.14c-0.047,0-0.093-0.009-0.137-0.028l-6.61-2.815c-0.178-0.076-0.261-0.281-0.185-0.459l2.814-6.61c0.037-0.085,0.105-0.153,0.191-0.188c0.087-0.035,0.183-0.033,0.268,0.002l6.61,2.815c0.178,0.076,0.261,0.281,0.185,0.459l-2.814,6.61c-0.037,0.085-0.105,0.153-0.191,0.188C68.559,71.132,68.515,71.14,68.471,71.14z M62.32,67.79l5.966,2.541l2.54-5.966l-5.966-2.541L62.32,67.79z"/></g></g><path fill="#472b29" d="M42.481,72.951c-2.036,0-3.967-1.218-4.773-3.218l-8.677-21.544c-1.058-2.628,0.219-5.627,2.847-6.686l14.463-5.825c2.628-1.06,5.627,0.218,6.686,2.846l1.222,3.035c0.072,0.179-0.015,0.383-0.194,0.456c-0.179,0.073-0.383-0.015-0.456-0.194l-1.222-3.035c-0.915-2.27-3.505-3.373-5.774-2.458L32.14,42.152c-2.27,0.914-3.373,3.504-2.459,5.774l8.677,21.544c0.914,2.269,3.503,3.373,5.774,2.458l14.464-5.826c1.095-0.44,1.954-1.286,2.419-2.38c0.466-1.094,0.48-2.3,0.039-3.394l-4.96-12.314c-0.072-0.179,0.015-0.383,0.194-0.456c0.181-0.07,0.383,0.015,0.456,0.194l4.96,12.314c0.511,1.268,0.495,2.664-0.044,3.93c-0.539,1.266-1.535,2.245-2.802,2.755l-14.464,5.826C43.767,72.831,43.119,72.951,42.481,72.951z"/><path fill="#472b29" d="M55.402,45.708c-0.139,0-0.27-0.083-0.325-0.219l-0.359-0.892c-0.072-0.18,0.015-0.383,0.194-0.456c0.18-0.072,0.383,0.015,0.456,0.194l0.359,0.892c0.072,0.18-0.015,0.383-0.194,0.456C55.49,45.7,55.445,45.708,55.402,45.708z"/><g><path fill="#cdcbbd" d="M63.173,73.358l-18.731-4.424c-3.231-0.763-5.251-4.031-4.487-7.263l6.373-26.981c0.763-3.231,4.031-5.251,7.263-4.487l18.731,4.424c3.231,0.763,5.251,4.031,4.487,7.263l-6.373,26.981C69.673,72.102,66.405,74.122,63.173,73.358z"/><path fill="#472b29" d="M64.562,74.221c-0.516,0-1.035-0.06-1.55-0.182l0,0l-18.73-4.424c-1.745-0.412-3.228-1.484-4.176-3.019c-0.948-1.535-1.244-3.341-0.832-5.086l6.373-26.981c0.412-1.745,1.484-3.228,3.019-4.176c1.536-0.949,3.341-1.245,5.086-0.832l18.73,4.424c1.745,0.412,3.228,1.484,4.176,3.019c0.948,1.535,1.244,3.341,0.832,5.086l-6.373,26.981c-0.412,1.745-1.484,3.228-3.019,4.176C67.015,73.877,65.798,74.221,64.562,74.221z M63.334,72.677c2.862,0.674,5.744-1.104,6.42-3.967l6.373-26.981c0.326-1.38,0.092-2.811-0.66-4.028s-1.926-2.066-3.308-2.393l-18.73-4.424c-1.378-0.325-2.811-0.092-4.028,0.66c-1.217,0.752-2.066,1.926-2.393,3.307l-6.373,26.981c-0.326,1.38-0.092,2.811,0.66,4.028c0.751,1.217,1.926,2.066,3.307,2.393L63.334,72.677z"/></g><g><path fill="#fdfcee" d="M71.011,53.055l-3.052,12.92c-0.605,2.563-3.197,4.164-5.76,3.559L47.024,65.95c-2.563-0.605-4.164-3.197-3.559-5.76l5.339-22.604c0.605-2.563,3.197-4.164,5.76-3.559l15.175,3.584c2.563,0.605,4.164,3.197,3.559,5.76l-0.752,3.184"/><path fill="#472b29" d="M63.3,70.013c-0.39,0-0.785-0.044-1.181-0.138l-15.175-3.584c-2.757-0.651-4.47-3.424-3.819-6.181l5.339-22.604c0.314-1.33,1.132-2.461,2.303-3.185c1.171-0.723,2.548-0.946,3.878-0.634L69.82,37.27c2.757,0.651,4.47,3.424,3.819,6.182l-0.752,3.184c-0.045,0.188-0.234,0.302-0.421,0.26c-0.188-0.044-0.305-0.233-0.26-0.421l0.752-3.184c0.271-1.148,0.077-2.338-0.548-3.35s-1.602-1.718-2.75-1.989l-15.175-3.584c-1.149-0.273-2.339-0.077-3.35,0.548c-1.011,0.625-1.718,1.602-1.989,2.75l-5.339,22.604c-0.562,2.381,0.917,4.776,3.299,5.338l15.175,3.584c2.383,0.562,4.776-0.917,5.339-3.299l3.052-12.92c0.044-0.188,0.23-0.307,0.421-0.26c0.188,0.044,0.305,0.233,0.26,0.421l-3.052,12.92C67.743,68.417,65.628,70.013,63.3,70.013z"/><path fill="#472b29" d="M71.638,50.755c-0.027,0-0.054-0.003-0.081-0.009c-0.188-0.044-0.305-0.233-0.26-0.421l0.221-0.936c0.044-0.188,0.231-0.307,0.421-0.26c0.188,0.044,0.305,0.233,0.26,0.421l-0.221,0.936C71.94,50.646,71.797,50.755,71.638,50.755z"/></g><g><path fill="#472b29" d="M55.203,40.751c-0.028,0.02-0.06,0.037-0.094,0.052c-0.035,0.015-0.069,0.026-0.103,0.032c-0.034,0.006-0.062,0.007-0.082,0.002c-0.071-0.017-0.117-0.039-0.138-0.068c-0.021-0.028-0.038-0.071-0.05-0.126l-0.388-1.76l-1.368-0.323l-1.092,1.42c-0.033,0.045-0.064,0.074-0.095,0.087c-0.031,0.013-0.081,0.011-0.148-0.005c-0.03-0.007-0.06-0.021-0.09-0.042c-0.031-0.021-0.059-0.047-0.085-0.076c-0.026-0.029-0.045-0.062-0.059-0.098c-0.013-0.036-0.016-0.07-0.009-0.102c0.013-0.056,0.042-0.105,0.086-0.148l2.447-3.179c0.035-0.042,0.074-0.074,0.116-0.096c0.043-0.023,0.085-0.029,0.126-0.019c0.059,0.014,0.1,0.035,0.123,0.062c0.023,0.027,0.037,0.063,0.042,0.108l-0.006-0.015l0.912,4.071c0.004,0.023,0.008,0.046,0.012,0.068c0.004,0.023,0.002,0.052-0.007,0.087C55.248,40.708,55.231,40.731,55.203,40.751z M53.322,38.117l0.894,0.211l-0.24-1.08L53.322,38.117z"/></g><g><path fill="#836f61" d="M54.367,57.58c0.03-0.126,0.057-0.254,0.094-0.378c0.011-0.038,0.047-0.083,0.082-0.096c0.701-0.26,1.232-0.731,1.674-1.321c0.245-0.327,0.444-0.676,0.607-1.073c-0.085,0.026-0.152,0.045-0.219,0.067c-0.467,0.154-0.947,0.217-1.436,0.167c-0.539-0.054-1.036-0.231-1.477-0.554c-0.485-0.354-0.833-0.807-1.021-1.378c-0.216-0.657-0.172-1.299,0.13-1.92c0.27-0.556,0.69-0.977,1.194-1.325c0.455-0.314,0.964-0.518,1.464-0.743c0.628-0.283,1.237-0.604,1.819-0.973c0.606-0.384,1.163-0.831,1.676-1.331c0.185-0.181,0.354-0.379,0.53-0.569c0.042-0.045,0.084-0.091,0.136-0.147c0.059,0.22,0.114,0.424,0.17,0.628c0.254,0.92,0.648,1.778,1.147,2.59c0.392,0.639,0.843,1.235,1.313,1.817c0.341,0.421,0.636,0.871,0.827,1.38c0.251,0.669,0.326,1.35,0.081,2.039c-0.211,0.594-0.594,1.05-1.139,1.364c-0.768,0.442-1.576,0.505-2.415,0.232c-0.578-0.188-1.053-0.53-1.467-0.965c-0.016-0.017-0.032-0.034-0.048-0.05c-0.004-0.004-0.012-0.006-0.039-0.017c-0.004,0.209-0.015,0.41-0.009,0.61c0.016,0.601,0.137,1.182,0.385,1.731c0.131,0.288,0.292,0.56,0.515,0.79c0.059,0.061,0.081,0.119,0.053,0.204c-0.037,0.11-0.059,0.225-0.087,0.338C57.393,58.325,55.88,57.952,54.367,57.58z"/><path fill="#472b29" d="M58.906,58.997c-0.023,0-0.047-0.003-0.072-0.009l-4.539-1.116c-0.16-0.04-0.258-0.201-0.22-0.361l0.023-0.098c0.023-0.1,0.046-0.199,0.075-0.296c0.03-0.1,0.117-0.236,0.264-0.291c0.583-0.216,1.086-0.615,1.539-1.22c0.103-0.137,0.196-0.277,0.281-0.423c-0.376,0.078-0.75,0.1-1.119,0.062c-0.607-0.061-1.153-0.266-1.624-0.609c-0.547-0.399-0.928-0.913-1.13-1.527c-0.24-0.73-0.191-1.451,0.145-2.144c0.27-0.556,0.693-1.027,1.293-1.441c0.405-0.279,0.844-0.474,1.269-0.662l0.242-0.108c0.639-0.288,1.238-0.608,1.783-0.953c0.571-0.361,1.118-0.796,1.627-1.293c0.124-0.121,0.24-0.25,0.356-0.378l0.3-0.327c0.074-0.08,0.185-0.113,0.292-0.087c0.106,0.026,0.189,0.108,0.217,0.213l0.169,0.626c0.236,0.854,0.6,1.676,1.114,2.513c0.334,0.544,0.732,1.095,1.291,1.786c0.414,0.511,0.691,0.976,0.875,1.462c0.304,0.811,0.331,1.545,0.083,2.246c-0.234,0.66-0.663,1.173-1.272,1.523c-0.826,0.475-1.72,0.562-2.657,0.257c-0.418-0.136-0.804-0.35-1.169-0.649c0.022,0.555,0.142,1.075,0.356,1.548c0.136,0.3,0.281,0.523,0.457,0.704c0.18,0.186,0.166,0.379,0.122,0.509c-0.022,0.067-0.038,0.138-0.055,0.208l-0.025,0.107C59.162,58.906,59.04,58.997,58.906,58.997z M54.728,57.36l3.958,0.974c0-0.003,0.001-0.006,0.002-0.008c-0.208-0.225-0.383-0.498-0.537-0.837c-0.256-0.566-0.395-1.188-0.412-1.847c-0.004-0.144,0-0.289,0.004-0.437l0.005-0.187c0.002-0.101,0.054-0.194,0.139-0.248c0.085-0.053,0.191-0.062,0.283-0.021c0.034,0.015,0.103,0.053,0.129,0.08l-0.135,0.196l0.026,0l0.164-0.14c0.417,0.438,0.856,0.728,1.342,0.886c0.78,0.254,1.49,0.185,2.172-0.207c0.482-0.277,0.821-0.683,1.006-1.205c0.199-0.561,0.173-1.161-0.079-1.833c-0.16-0.424-0.408-0.836-0.78-1.296c-0.575-0.711-0.987-1.282-1.336-1.849c-0.543-0.886-0.93-1.759-1.18-2.668l-0.028-0.102c-0.101,0.111-0.202,0.221-0.309,0.325c-0.539,0.525-1.119,0.986-1.725,1.37c-0.568,0.36-1.193,0.694-1.857,0.993l-0.246,0.11c-0.418,0.185-0.812,0.36-1.171,0.607c-0.513,0.354-0.871,0.75-1.094,1.209c-0.27,0.555-0.307,1.109-0.115,1.694c0.164,0.499,0.463,0.901,0.913,1.23c0.383,0.279,0.831,0.447,1.331,0.497c0.427,0.042,0.871-0.008,1.312-0.154l0.172-0.053c0.109-0.034,0.258-0.009,0.335,0.078c0.078,0.086,0.126,0.2,0.083,0.307c-0.169,0.414-0.38,0.787-0.644,1.139c-0.503,0.673-1.069,1.128-1.728,1.391C54.729,57.357,54.728,57.359,54.728,57.36z"/></g><g><path fill="#836f61" d="M61.798,66.168c0.013-0.054,0.024-0.108,0.04-0.16c0.005-0.016,0.02-0.035,0.035-0.041c0.298-0.11,0.523-0.31,0.71-0.561c0.104-0.139,0.189-0.287,0.258-0.455c-0.036,0.011-0.065,0.019-0.093,0.028c-0.198,0.065-0.402,0.092-0.61,0.071c-0.229-0.023-0.44-0.098-0.627-0.235c-0.206-0.15-0.354-0.342-0.433-0.585c-0.092-0.279-0.073-0.551,0.055-0.815c0.115-0.236,0.293-0.415,0.507-0.563c0.193-0.133,0.409-0.22,0.621-0.316c0.267-0.12,0.525-0.256,0.772-0.413c0.257-0.163,0.494-0.353,0.712-0.565c0.079-0.077,0.15-0.161,0.225-0.242c0.018-0.019,0.036-0.039,0.058-0.062c0.025,0.093,0.048,0.18,0.072,0.267c0.108,0.391,0.275,0.755,0.487,1.1c0.167,0.271,0.358,0.524,0.558,0.772c0.145,0.179,0.27,0.37,0.351,0.586c0.107,0.284,0.138,0.573,0.034,0.866c-0.09,0.252-0.252,0.446-0.483,0.579c-0.326,0.187-0.669,0.214-1.025,0.099c-0.245-0.08-0.447-0.225-0.623-0.41c-0.007-0.007-0.013-0.014-0.021-0.021c-0.002-0.002-0.005-0.002-0.017-0.007c-0.002,0.089-0.006,0.174-0.004,0.259c0.007,0.255,0.058,0.502,0.164,0.735c0.055,0.122,0.124,0.238,0.219,0.335c0.025,0.026,0.035,0.05,0.022,0.087c-0.016,0.047-0.025,0.096-0.037,0.144C63.083,66.484,62.44,66.326,61.798,66.168z"/><path fill="#472b29" d="M64.028,61.255c0.025,0.093,0.048,0.18,0.072,0.267c0.108,0.391,0.275,0.755,0.487,1.1c0.167,0.271,0.358,0.524,0.557,0.772c0.145,0.179,0.27,0.37,0.351,0.586c0.107,0.284,0.138,0.573,0.034,0.866c-0.09,0.252-0.252,0.446-0.483,0.579c-0.197,0.113-0.4,0.168-0.608,0.168c-0.137,0-0.276-0.023-0.417-0.069c-0.245-0.08-0.447-0.225-0.623-0.41c-0.007-0.007-0.013-0.014-0.021-0.021c-0.002-0.002-0.005-0.002-0.017-0.007c-0.002,0.089-0.006,0.174-0.004,0.259c0.007,0.255,0.058,0.502,0.164,0.735c0.055,0.122,0.124,0.238,0.219,0.335c0.025,0.026,0.035,0.05,0.022,0.087c-0.016,0.047-0.025,0.096-0.037,0.144c-0.642-0.158-1.284-0.316-1.927-0.474c0.013-0.054,0.024-0.108,0.04-0.16c0.005-0.016,0.02-0.035,0.035-0.041c0.298-0.11,0.523-0.31,0.711-0.561c0.104-0.139,0.189-0.287,0.258-0.455c-0.036,0.011-0.065,0.019-0.093,0.028c-0.154,0.051-0.311,0.078-0.47,0.078c-0.046,0-0.093-0.002-0.139-0.007c-0.229-0.023-0.44-0.098-0.627-0.235c-0.206-0.15-0.354-0.342-0.433-0.585c-0.092-0.279-0.073-0.551,0.055-0.815c0.115-0.236,0.293-0.415,0.507-0.563c0.193-0.133,0.409-0.22,0.621-0.316c0.267-0.12,0.525-0.256,0.772-0.413c0.257-0.163,0.494-0.353,0.712-0.565c0.079-0.077,0.15-0.161,0.225-0.242C63.988,61.298,64.006,61.278,64.028,61.255 M64.028,60.855c-0.11,0-0.217,0.045-0.293,0.128L63.7,61.019l-0.097,0.106c-0.045,0.05-0.09,0.1-0.138,0.147c-0.202,0.197-0.42,0.37-0.646,0.514c-0.223,0.141-0.459,0.268-0.723,0.387l-0.1,0.045c-0.192,0.085-0.391,0.173-0.584,0.306c-0.295,0.203-0.504,0.438-0.64,0.717c-0.175,0.36-0.2,0.735-0.075,1.115c0.104,0.316,0.298,0.58,0.578,0.783c0.216,0.157,0.461,0.257,0.732,0.298c-0.086,0.068-0.176,0.119-0.273,0.155c-0.131,0.049-0.238,0.164-0.279,0.301c-0.014,0.046-0.025,0.093-0.036,0.14c-0.049,0.213,0.071,0.471,0.284,0.523l1.187,0.292l0.74,0.182c0.032,0.008,0.064,0.012,0.096,0.012c0.179,0,0.342-0.121,0.388-0.303c0.001-0.002,0.011-0.048,0.012-0.05c0.005-0.021,0.009-0.043,0.016-0.063c0.059-0.177,0.018-0.356-0.114-0.493c-0.052-0.054-0.097-0.124-0.141-0.222c-0.002-0.005-0.005-0.011-0.007-0.016c0.006,0.002,0.013,0.004,0.019,0.006c0.182,0.059,0.363,0.089,0.54,0.089c0.281,0,0.553-0.074,0.808-0.221c0.317-0.182,0.539-0.449,0.661-0.792c0.126-0.356,0.114-0.739-0.037-1.14c-0.088-0.234-0.22-0.456-0.415-0.697c-0.229-0.284-0.392-0.509-0.528-0.729c-0.205-0.333-0.349-0.659-0.442-0.997l-0.047-0.175l-0.024-0.09c-0.038-0.14-0.149-0.249-0.29-0.284C64.092,60.858,64.06,60.855,64.028,60.855L64.028,60.855z"/></g></g><g><path fill="#fdfcef" d="M49.984,77.448c1.883,0,3.517,0,3.54,0c2.11,0,3.821-1.674,3.821-3.739c0-1.802-1.302-3.305-3.035-3.66c0.02-0.158,0.034-0.317,0.034-0.48c0-2.139-1.772-3.873-3.957-3.873c-1.29,0-2.433,0.607-3.155,1.543c-0.185-2.381-2.358-4.218-4.9-3.913c-1.859,0.223-3.397,1.629-3.739,3.431c-0.11,0.578-0.098,1.139,0.011,1.665c-0.498-0.525-1.208-0.856-1.998-0.856c-1.446,0-2.627,1.102-2.72,2.494c-0.657-0.142-1.371-0.133-2.123,0.143c-1.438,0.528-2.462,1.853-2.522,3.356c-0.085,2.133,1.657,3.889,3.818,3.889c0.164,0,0.741,0,0.874,0h7.934 M43.506,77.448h0.36"/><path fill="#472b29" d="M53.524,77.948h-3.541c-0.276,0-0.5-0.224-0.5-0.5s0.224-0.5,0.5-0.5h3.541c1.831,0,3.32-1.453,3.32-3.24c0-1.524-1.108-2.857-2.636-3.169c-0.256-0.052-0.429-0.293-0.396-0.553c0.018-0.137,0.03-0.276,0.03-0.417c0-1.86-1.551-3.373-3.457-3.373c-1.092,0-2.098,0.491-2.76,1.348c-0.126,0.164-0.341,0.233-0.539,0.173c-0.198-0.059-0.339-0.234-0.355-0.44c-0.079-1.019-0.565-1.944-1.369-2.604c-0.829-0.68-1.883-0.98-2.973-0.852c-1.646,0.197-3.006,1.442-3.307,3.028c-0.094,0.494-0.091,0.988,0.01,1.47c0.045,0.219-0.06,0.441-0.258,0.544c-0.197,0.103-0.44,0.064-0.595-0.099c-0.428-0.452-1.009-0.7-1.636-0.7c-1.169,0-2.145,0.891-2.221,2.028c-0.01,0.145-0.082,0.279-0.198,0.366c-0.116,0.087-0.264,0.119-0.407,0.089c-0.639-0.139-1.242-0.099-1.845,0.124c-1.262,0.463-2.144,1.631-2.195,2.906c-0.035,0.875,0.283,1.708,0.895,2.345c0.635,0.661,1.496,1.024,2.423,1.024h8.807c0.276,0,0.5,0.224,0.5,0.5s-0.224,0.5-0.5,0.5h-8.807c-1.185,0-2.331-0.485-3.144-1.332c-0.803-0.835-1.219-1.928-1.173-3.078c0.067-1.675,1.212-3.204,2.849-3.805c0.609-0.225,1.239-0.307,1.88-0.245c0.344-1.396,1.629-2.424,3.135-2.424c0.493,0,0.977,0.113,1.414,0.323c0.009-0.241,0.037-0.483,0.083-0.725c0.381-2.01,2.096-3.586,4.17-3.834c1.367-0.161,2.685,0.218,3.726,1.072c0.748,0.613,1.278,1.41,1.546,2.302c0.791-0.648,1.786-1.007,2.842-1.007c2.458,0,4.457,1.962,4.457,4.373c0,0.034,0,0.068-0.001,0.103c1.764,0.555,3.003,2.188,3.003,4.037C57.845,76.046,55.907,77.948,53.524,77.948z M43.866,77.948h-0.36c-0.276,0-0.5-0.224-0.5-0.5s0.224-0.5,0.5-0.5h0.36c0.276,0,0.5,0.224,0.5,0.5S44.142,77.948,43.866,77.948z"/><path fill="#472b29" d="M51.816,72.144c-0.018,0-0.036-0.002-0.055-0.006c-0.135-0.03-0.219-0.164-0.189-0.299c0.037-0.165,0.094-0.327,0.17-0.479c0.604-1.223,2.274-1.675,3.722-1.006c0.125,0.058,0.18,0.207,0.122,0.332c-0.059,0.125-0.206,0.179-0.332,0.122c-1.203-0.554-2.578-0.208-3.063,0.774c-0.058,0.117-0.102,0.241-0.13,0.367C52.034,72.065,51.931,72.144,51.816,72.144z"/><g><path fill="#472b29" d="M46.658,77.948h-1.107c-0.276,0-0.5-0.224-0.5-0.5s0.224-0.5,0.5-0.5h1.107c0.276,0,0.5,0.224,0.5,0.5S46.934,77.948,46.658,77.948z"/></g></g></g></svg>