<svg xmlns="http://www.w3.org/2000/svg"  viewBox="0 0 100 100" width="200px" height="200px"><path fill="#c7ede6" d="M87.715,53.71c1.135-2.155,1.785-4.605,1.785-7.21c0-6.621-4.159-12.257-10.001-14.478 c0-0.008,0.001-0.015,0.001-0.022c0-11.598-9.402-21-21-21c-9.784,0-17.981,6.701-20.313,15.757C36.711,26.272,35.138,26,33.5,26 c-7.692,0-14.023,5.793-14.89,13.252c-5.204,1.1-9.11,5.716-9.11,11.248C9.5,56.851,14.649,62,21,62 c0.177,0,0.352-0.012,0.526-0.022C21.522,62.153,21.5,62.324,21.5,62.5C21.5,73.822,30.678,83,42,83 c6.437,0,12.175-2.972,15.934-7.614C60.112,77.611,63.14,79,66.5,79c4.65,0,8.674-2.65,10.666-6.518 C78.218,72.817,79.337,73,80.5,73c6.075,0,11-4.925,11-11C91.5,58.689,90.03,55.727,87.715,53.71z"/><path fill="#fff" d="M12,49H2c-0.276,0-0.5-0.224-0.5-0.5S1.724,48,2,48h10c0.276,0,0.5,0.224,0.5,0.5S12.277,49,12,49 z"/><path fill="#fff" d="M15,49h-1c-0.276,0-0.5-0.224-0.5-0.5S13.724,48,14,48h1c0.276,0,0.5,0.224,0.5,0.5 S15.277,49,15,49z"/><path fill="#fff" d="M19.991,51H11c-0.276,0-0.5-0.224-0.5-0.5S10.724,50,11,50h8.991c0.276,0,0.5,0.224,0.5,0.5 S20.267,51,19.991,51z"/><path fill="#fff" d="M9,51H8c-0.276,0-0.5-0.224-0.5-0.5S7.724,50,8,50h1c0.276,0,0.5,0.224,0.5,0.5S9.277,51,9,51z"/><path fill="#fff" d="M6,51H4c-0.276,0-0.5-0.224-0.5-0.5S3.724,50,4,50h2c0.276,0,0.5,0.224,0.5,0.5S6.277,51,6,51z"/><path fill="#fff" d="M12,53h-2c-0.276,0-0.5-0.224-0.5-0.5S9.724,52,10,52h2c0.276,0,0.5,0.224,0.5,0.5 S12.276,53,12,53z"/><path fill="#fff" d="M15,44c-0.177,0-0.823,0-1,0c-0.276,0-0.5,0.224-0.5,0.5c0,0.276,0.224,0.5,0.5,0.5 c0.177,0,0.823,0,1,0c0.276,0,0.5-0.224,0.5-0.5C15.5,44.224,15.276,44,15,44z"/><path fill="#fff" d="M15,46c-0.177,0-4.823,0-5,0c-0.276,0-0.5,0.224-0.5,0.5c0,0.276,0.224,0.5,0.5,0.5 c0.177,0,4.823,0,5,0c0.276,0,0.5-0.224,0.5-0.5C15.5,46.224,15.276,46,15,46z"/><path fill="#fff" d="M20,48c-0.177,0-2.823,0-3,0c-0.276,0-0.5,0.224-0.5,0.5c0,0.276,0.224,0.5,0.5,0.5 c0.177,0,2.823,0,3,0c0.276,0,0.5-0.224,0.5-0.5C20.5,48.224,20.276,48,20,48z"/><path fill="#fff" d="M69,22H59c-0.276,0-0.5-0.224-0.5-0.5S58.724,21,59,21h10c0.276,0,0.5,0.224,0.5,0.5 S69.276,22,69,22z"/><path fill="#fff" d="M73,22h-2c-0.276,0-0.5-0.224-0.5-0.5S70.724,21,71,21h2c0.276,0,0.5,0.224,0.5,0.5 S73.276,22,73,22z"/><path fill="#fff" d="M78,24H68c-0.276,0-0.5-0.224-0.5-0.5S67.724,23,68,23h10c0.276,0,0.5,0.224,0.5,0.5 S78.277,24,78,24z"/><path fill="#fff" d="M66,24h-1c-0.276,0-0.5-0.224-0.5-0.5S64.724,23,65,23h1c0.276,0,0.5,0.224,0.5,0.5 S66.276,24,66,24z"/><path fill="#fff" d="M62.97,24H61c-0.276,0-0.5-0.224-0.5-0.5S60.724,23,61,23h1.97c0.276,0,0.5,0.224,0.5,0.5 S63.246,24,62.97,24z"/><path fill="#fff" d="M72,20h-5c-0.276,0-0.5-0.224-0.5-0.5S66.724,19,67,19h5c0.276,0,0.5,0.224,0.5,0.5 S72.277,20,72,20z"/><path fill="#fff" d="M69,26h-2c-0.276,0-0.5-0.224-0.5-0.5S66.724,25,67,25h2c0.276,0,0.5,0.224,0.5,0.5 S69.276,26,69,26z"/><path fill="#fdfcef" d="M72.697,51.213v0.5h3v-0.5c0,0,4.242,0,5.5,0c2.485,0,4.5-2.015,4.5-4.5 c0-2.333-1.782-4.229-4.055-4.455c0.022-0.181,0.055-0.358,0.055-0.545c0-2.485-2.015-4.5-4.5-4.5 c-1.438,0-2.703,0.686-3.527,1.736c-0.14-2.636-2.302-4.736-4.973-4.736c-2.761,0-5,2.239-5,5c0,0.446,0.077,0.87,0.187,1.282 c-0.642-0.777-1.6-1.282-2.687-1.282c-1.781,0-3.234,1.335-3.455,3.055c-0.181-0.022-0.358-0.055-0.545-0.055 c-2.485,0-4.5,2.015-4.5,4.5s2.015,4.5,4.5,4.5s9.5,0,9.5,0H72.697z"/><path fill="#472b29" d="M68.697,33.713c-3.033,0-5.5,2.467-5.5,5.5c0,0.016,0,0.031,0,0.047 c-0.602-0.354-1.29-0.547-2-0.547c-1.831,0-3.411,1.261-3.858,3.005c-0.047-0.003-0.094-0.005-0.142-0.005c-2.757,0-5,2.243-5,5 s2.243,5,5,5h15.5c0.276,0,0.5-0.224,0.5-0.5s-0.224-0.5-0.5-0.5h-15.5c-2.206,0-4-1.794-4-4s1.794-4,4-4 c0.117,0,0.23,0.017,0.343,0.032l0.141,0.019c0.021,0.003,0.041,0.004,0.062,0.004c0.246,0,0.462-0.185,0.495-0.437 c0.191-1.493,1.463-2.618,2.959-2.618c0.885,0,1.723,0.401,2.301,1.1c0.098,0.118,0.241,0.182,0.386,0.182 c0.078,0,0.156-0.018,0.228-0.056c0.209-0.107,0.314-0.346,0.254-0.573c-0.116-0.436-0.17-0.802-0.17-1.153 c0-2.481,2.019-4.5,4.5-4.5c2.381,0,4.347,1.872,4.474,4.263c0.011,0.208,0.15,0.387,0.349,0.45 c0.05,0.016,0.101,0.024,0.152,0.024c0.15,0,0.296-0.069,0.392-0.192c0.771-0.981,1.913-1.544,3.133-1.544c2.206,0,4,1.794,4,4 c0,0.117-0.017,0.23-0.032,0.343l-0.019,0.141c-0.016,0.134,0.022,0.268,0.106,0.373c0.084,0.105,0.207,0.172,0.34,0.185 c2.055,0.205,3.604,1.906,3.604,3.958c0,2.206-1.794,4-4,4h-5.5c-0.276,0-0.5,0.224-0.5,0.5s0.224,0.5,0.5,0.5h5.5 c2.757,0,5-2.243,5-5c0-2.397-1.689-4.413-4.003-4.877c0.002-0.041,0.003-0.082,0.003-0.123c0-2.757-2.243-5-5-5 c-1.176,0-2.293,0.416-3.183,1.164C73.416,35.473,71.253,33.713,68.697,33.713L68.697,33.713z"/><path fill="#472b29" d="M67.197,40.713c-1.403,0-2.609,0.999-2.913,2.341c-0.367-0.222-0.786-0.341-1.212-0.341 c-1.202,0-2.198,0.897-2.353,2.068c-0.203-0.045-0.396-0.068-0.585-0.068c-1.529,0-2.811,1.2-2.918,2.732 c-0.009,0.138,0.094,0.257,0.232,0.267c0.006,0,0.012,0,0.018,0c0.13,0,0.24-0.101,0.249-0.232 c0.089-1.271,1.151-2.268,2.419-2.268c0.229,0,0.47,0.042,0.738,0.127c0.022,0.007,0.045,0.01,0.067,0.01 c0.055,0,0.11-0.02,0.156-0.054c0.064-0.047,0.102-0.129,0.102-0.209c0-1.034,0.841-1.875,1.875-1.875 c0.447,0,0.885,0.168,1.231,0.473c0.047,0.041,0.106,0.063,0.165,0.063c0.032,0,0.063-0.006,0.093-0.019 c0.088-0.035,0.148-0.117,0.155-0.212c0.102-1.292,1.191-2.305,2.479-2.305c0.208,0,0.425,0.034,0.682,0.107 c0.023,0.007,0.047,0.01,0.07,0.01c0.109,0,0.207-0.073,0.239-0.182c0.038-0.133-0.039-0.271-0.172-0.309 C67.714,40.753,67.454,40.713,67.197,40.713L67.197,40.713z"/><path fill="#472b29" d="M81.081,42.213c-1.326,0-2.508,0.897-2.874,2.182c-0.038,0.133,0.039,0.271,0.172,0.309 c0.023,0.007,0.046,0.01,0.068,0.01c0.109,0,0.209-0.072,0.24-0.182c0.305-1.071,1.289-1.818,2.393-1.818 c0.117,0,0.23,0.014,0.342,0.029c0.012,0.002,0.023,0.003,0.035,0.003c0.121,0,0.229-0.092,0.246-0.217 c0.019-0.137-0.077-0.263-0.214-0.281C81.355,42.228,81.22,42.213,81.081,42.213L81.081,42.213z"/><g><polygon fill="#8889b9" points="38.66,51.842 50.447,29.876 52.59,29.34 54.197,29.876 65.448,51.306 52.59,58.271"/></g><g><polygon fill="#d3d5ea" points="35.445,66.308 30.623,48.627 31.695,47.556 52.054,57.735 36.517,66.843"/></g><g><polygon fill="#d3d5ea" points="69.199,66.308 74.02,48.627 72.949,47.556 52.054,57.735 68.127,66.843"/></g><g><polygon fill="#8889b9" points="36.517,66.843 68.663,67.379 52.054,57.2"/></g><g><path fill="#472b29" d="M48.571,57.718c-0.038,0-0.076-0.009-0.112-0.026l-1.071-0.536 c-0.123-0.062-0.173-0.212-0.111-0.336c0.063-0.123,0.212-0.171,0.336-0.111l1.071,0.536c0.123,0.062,0.173,0.212,0.111,0.336 C48.751,57.667,48.663,57.718,48.571,57.718z"/></g><g><path fill="#472b29" d="M36.785,65.219c-0.109,0-0.21-0.072-0.241-0.184l-4.436-16.079l14.432,7.216 c0.124,0.062,0.174,0.212,0.112,0.335c-0.063,0.125-0.215,0.172-0.335,0.112L32.89,49.906l4.137,14.997 c0.036,0.133-0.042,0.271-0.175,0.308C36.829,65.216,36.807,65.219,36.785,65.219z"/></g><g><path fill="#472b29" d="M55.536,57.718c-0.092,0-0.18-0.051-0.224-0.139c-0.062-0.123-0.012-0.273,0.112-0.335l1.072-0.536 c0.121-0.059,0.273-0.012,0.335,0.112c0.062,0.123,0.012,0.273-0.112,0.335l-1.072,0.536 C55.612,57.709,55.574,57.718,55.536,57.718z"/></g><g><path fill="#472b29" d="M67.859,65.219c-0.021,0-0.044-0.003-0.066-0.009c-0.133-0.037-0.211-0.175-0.175-0.308l4.14-15.007 l-13.97,6.727c-0.124,0.06-0.273,0.009-0.334-0.117c-0.06-0.124-0.007-0.273,0.117-0.334l14.962-7.204l-4.433,16.068 C68.069,65.146,67.969,65.219,67.859,65.219z"/></g><g><path fill="#472b29" d="M42.678,65.754h-1.071c-0.138,0-0.25-0.112-0.25-0.25s0.112-0.25,0.25-0.25h1.071 c0.138,0,0.25,0.112,0.25,0.25S42.815,65.754,42.678,65.754z"/></g><g><path fill="#472b29" d="M63.037,65.754h-1.071c-0.138,0-0.25-0.112-0.25-0.25s0.112-0.25,0.25-0.25h1.071 c0.138,0,0.25,0.112,0.25,0.25S63.175,65.754,63.037,65.754z"/></g><g><path fill="#472b29" d="M60.895,65.754H43.75c-0.138,0-0.25-0.112-0.25-0.25s0.112-0.25,0.25-0.25h17.145 c0.138,0,0.25,0.112,0.25,0.25S61.032,65.754,60.895,65.754z"/></g><g><path fill="#d3d5ea" d="M38.66,51.306l12.045-21.163c0,0,0.556-1.446,1.35-0.723v28.315L38.66,51.306z"/></g><g><path fill="#472b29" d="M52.322,51.824c-0.138,0-0.25-0.112-0.25-0.25V31.215c0-0.138,0.112-0.25,0.25-0.25 s0.25,0.112,0.25,0.25v20.359C52.572,51.712,52.46,51.824,52.322,51.824z"/></g><g><path fill="#472b29" d="M52.322,54.503c-0.138,0-0.25-0.112-0.25-0.25v-1.071c0-0.138,0.112-0.25,0.25-0.25 s0.25,0.112,0.25,0.25v1.071C52.572,54.391,52.46,54.503,52.322,54.503z"/></g><g><path fill="#472b29" d="M52.322,56.11c-0.138,0-0.25-0.112-0.25-0.25v-0.536c0-0.138,0.112-0.25,0.25-0.25 s0.25,0.112,0.25,0.25v0.536C52.572,55.998,52.46,56.11,52.322,56.11z"/></g><path fill="#472b29" d="M74.02,47.162c-0.552-0.436-1.276-0.508-1.902-0.19l-6.06,2.753	c-0.176,0.082-0.386,0.009-0.478-0.158L54.578,29.763c-0.51-0.917-1.437-1.463-2.484-1.463c-0.008,0-0.017,0-0.024,0	c-1.059,0.009-1.987,0.571-2.485,1.505L39.049,49.558c-0.092,0.172-0.303,0.243-0.479,0.164l-6-2.699	c-0.632-0.34-1.37-0.274-1.931,0.167c-0.562,0.44-0.8,1.143-0.622,1.834l4.234,16.518c0.383,1.495,1.729,2.539,3.273,2.539H67.12	c1.544,0,2.89-1.044,3.272-2.539l4.243-16.549C74.812,48.303,74.576,47.603,74.02,47.162z M40.284,50.216l10.534-19.751	c0.253-0.474,0.726-0.76,1.263-0.764c0.004,0,0.008,0,0.013,0c0.531,0,1.002,0.276,1.26,0.742l11.003,19.805	c0.137,0.247,0.331,0.443,0.553,0.593l-12.014,5.822c-0.516,0.292-1.147,0.284-1.687-0.036l-11.523-5.767	C39.929,50.701,40.14,50.487,40.284,50.216z M52.729,58.356l13.963,8.322H37.903l13.435-8.291	C51.793,58.165,52.314,58.16,52.729,58.356z M31.372,48.674c-0.055-0.212,0.073-0.339,0.131-0.384	c0.036-0.028,0.11-0.076,0.22-0.076c0.064,0,0.141,0.016,0.229,0.063l4.446,2.002c0.044,0.055,0.097,0.102,0.164,0.136l14.167,7.089	c0.027,0.016,0.057,0.021,0.085,0.036l-14.328,8.839c-0.424-0.262-0.748-0.677-0.879-1.185L31.372,48.674z M73.28,48.644	l-4.243,16.549c-0.131,0.512-0.459,0.929-0.887,1.191l-14.814-8.827c0.008-0.004,0.017-0.006,0.025-0.01l14.717-7.13	c0.074-0.036,0.131-0.091,0.177-0.153l4.458-2.025l0.036-0.017c0.19-0.103,0.346-0.008,0.402,0.038	C73.208,48.305,73.334,48.432,73.28,48.644z"/><g><path fill="#fdfcef" d="M41.22,71.144c0,0,1.567,0,3.5,0s3.5-1.567,3.5-3.5c0-1.781-1.335-3.234-3.055-3.455 c0.028-0.179,0.055-0.358,0.055-0.545c0-1.933-1.567-3.5-3.5-3.5c-1.032,0-1.95,0.455-2.59,1.165 c-0.384-1.808-1.987-3.165-3.91-3.165c-2.209,0-4,1.791-4,4c0,0.191,0.03,0.374,0.056,0.558c-0.428-0.344-0.965-0.558-1.556-0.558 c-1.228,0-2.245,0.887-2.455,2.055c-0.179-0.028-0.358-0.055-0.545-0.055c-1.933,0-3.5,1.567-3.5,3.5s1.567,3.5,3.5,3.5 s7.5,0,7.5,0v0.5h7V71.144z"/><path fill="#472b29" d="M42.97,66.644c-0.138,0-0.25-0.112-0.25-0.25c0-1.223,0.995-2.218,2.218-2.218 c0.034,0.009,0.737-0.001,1.244,0.136c0.133,0.036,0.212,0.173,0.176,0.306c-0.036,0.134-0.173,0.213-0.306,0.176 c-0.444-0.12-1.1-0.12-1.113-0.118c-0.948,0-1.719,0.771-1.719,1.718C43.22,66.532,43.109,66.644,42.97,66.644z"/><circle cx="36.22" cy="71.144" r=".5" fill="#472b29"/><path fill="#472b29" d="M44.72,71.644h-3.5c-0.276,0-0.5-0.224-0.5-0.5s0.224-0.5,0.5-0.5h3.5c1.654,0,3-1.346,3-3 c0-1.496-1.125-2.768-2.618-2.959c-0.134-0.018-0.255-0.088-0.336-0.196s-0.115-0.244-0.094-0.377 c0.024-0.153,0.049-0.308,0.049-0.468c0-1.654-1.346-3-3-3c-0.85,0-1.638,0.355-2.219,1c-0.125,0.139-0.321,0.198-0.5,0.148 c-0.182-0.049-0.321-0.195-0.36-0.379c-0.341-1.604-1.779-2.769-3.42-2.769c-1.93,0-3.5,1.57-3.5,3.5 c0,0.143,0.021,0.28,0.041,0.418c0.029,0.203-0.063,0.438-0.242,0.54c-0.179,0.102-0.396,0.118-0.556-0.01 c-0.365-0.293-0.794-0.448-1.243-0.448c-0.966,0-1.792,0.691-1.963,1.644c-0.048,0.267-0.296,0.446-0.569,0.405 c-0.153-0.024-0.308-0.049-0.468-0.049c-1.654,0-3,1.346-3,3s1.346,3,3,3h7.5c0.276,0,0.5,0.224,0.5,0.5s-0.224,0.5-0.5,0.5h-7.5 c-2.206,0-4-1.794-4-4s1.794-4,4-4c0.059,0,0.116,0.002,0.174,0.006c0.414-1.186,1.537-2.006,2.826-2.006 c0.349,0,0.689,0.061,1.011,0.18c0.165-2.333,2.115-4.18,4.489-4.18c1.831,0,3.466,1.127,4.153,2.774 c0.68-0.499,1.502-0.774,2.347-0.774c2.206,0,4,1.794,4,4c0,0.048-0.001,0.095-0.004,0.142c1.743,0.448,3.004,2.027,3.004,3.858 C48.72,69.849,46.926,71.644,44.72,71.644z"/><path fill="#472b29" d="M39.22,70.644c-0.159,0-0.841,0-1,0c-0.276,0-0.5,0.224-0.5,0.5c0,0.276,0.224,0.5,0.5,0.5 c0.159,0,0.841,0,1,0c0.276,0,0.5-0.224,0.5-0.5C39.72,70.867,39.496,70.644,39.22,70.644z"/></g></svg>